<svg xmlns="http://www.w3.org/2000/svg" version="1.1" width="3300" height="2000"><g id="Notes"><style>
    text {
      font-family: monospace;
      text-anchor: middle;
    }
    text.emphasis {
      font-weight:bold;
    }
    text.lanchor {
      text-anchor: start;
    }
  </style><rect height="2200" id="artboard" fill="white" width="3300" x="0" y="0"/><line id="" style="fill:none;stroke:black;stroke-width:0.5;" x1="263" x2="3036" y1="292" y2="292"/><text class="lanchor emphasis" transform="matrix(1 0 0 1 263 322)">Weight/Scale Variations</text><text transform="matrix(1 0 0 1 559.711 322)">Ultralight</text><text transform="matrix(1 0 0 1 856.422 322)">Thin</text><text transform="matrix(1 0 0 1 1153.13 322)">Light</text><text transform="matrix(1 0 0 1 1449.84 322)">Regular</text><text transform="matrix(1 0 0 1 1746.56 322)">Medium</text><text transform="matrix(1 0 0 1 2043.27 322)">Semibold</text><text transform="matrix(1 0 0 1 2339.98 322)">Bold</text><text transform="matrix(1 0 0 1 2636.69 322)">Heavy</text><text transform="matrix(1 0 0 1 2933.4 322)">Black</text><text id="template-version" style="text-anchor: end;" transform="matrix(1 0 0 1 3036 1933)">Template v.1.0</text><text class="lanchor" transform="matrix(1 0 0 1 263 726)">Small</text><text class="lanchor" transform="matrix(1 0 0 1 263 1156)">Medium</text><text class="lanchor" transform="matrix(1 0 0 1 263 1586)">Large</text></g><g id="Guides"><g id="H-reference" style="fill:#27AAE1;stroke:none;" transform="matrix(1 0 0 1 339 696)"><path d="M 54.9316 0 L 57.666 0 L 30.5664 -70.459 L 28.0762 -70.459 L 0.976562 0 L 3.66211 0 L 12.9395 -24.4629 L 45.7031 -24.4629 Z M 29.1992 -67.0898 L 29.4434 -67.0898 L 44.8242 -26.709 L 13.8184 -26.709 Z"/></g><line id="Baseline-S" style="fill:none;stroke:#27AAE1;opacity:1;stroke-width:0.577;" x1="263" x2="3036" y1="696" y2="696"/><line id="Capline-S" style="fill:none;stroke:#27AAE1;opacity:1;stroke-width:0.577;" x1="263" x2="3036" y1="625.541" y2="625.541"/><g id="H-reference" style="fill:#27AAE1;stroke:none;" transform="matrix(1 0 0 1 339 1126)"><path d="M 54.9316 0 L 57.666 0 L 30.5664 -70.459 L 28.0762 -70.459 L 0.976562 0 L 3.66211 0 L 12.9395 -24.4629 L 45.7031 -24.4629 Z M 29.1992 -67.0898 L 29.4434 -67.0898 L 44.8242 -26.709 L 13.8184 -26.709 Z"/></g><line id="Baseline-M" style="fill:none;stroke:#27AAE1;opacity:1;stroke-width:0.577;" x1="263" x2="3036" y1="1126" y2="1126"/><line id="Capline-M" style="fill:none;stroke:#27AAE1;opacity:1;stroke-width:0.577;" x1="263" x2="3036" y1="1055.54" y2="1055.54"/><g id="H-reference" style="fill:#27AAE1;stroke:none;" transform="matrix(1 0 0 1 339 1556)"><path d="M 54.9316 0 L 57.666 0 L 30.5664 -70.459 L 28.0762 -70.459 L 0.976562 0 L 3.66211 0 L 12.9395 -24.4629 L 45.7031 -24.4629 Z M 29.1992 -67.0898 L 29.4434 -67.0898 L 44.8242 -26.709 L 13.8184 -26.709 Z"/></g><line id="Baseline-L" style="fill:none;stroke:#27AAE1;opacity:1;stroke-width:0.577;" x1="263" x2="3036" y1="1556" y2="1556"/><line id="Capline-L" style="fill:none;stroke:#27AAE1;opacity:1;stroke-width:0.577;" x1="263" x2="3036" y1="1485.54" y2="1485.54"/><rect height="119.336" id="left-margin" style="fill:darkred;stroke:none;opacity:0.4;" width="12.4512" x="1394.06" y="1030.79"/><rect height="119.336" id="right-margin" style="fill:darkgreen;stroke:none;opacity:0.4;" width="12.4512" x="1502.5112" y="1030.79"/><rect x="1406.5112" y="1045" width="96" height="96" fill="none" stroke="blue" stroke-dasharray="5"/><rect x="1394.06" y="1030.79" width="120.9024" height="119.336" fill="none" stroke="blue"/></g><g id="Symbols"><g id="Bold-L" transform="matrix(1 0 0 1 2266 1556)"><path d="M77.423 33.301 Q63.21 33.301 50.715 27.967 Q38.221 22.631 28.88 13.29 Q19.539 3.949 14.203 -8.524 Q8.869 -20.996 8.869 -35.211 Q8.869 -49.636 14.271 -62.106 Q19.672 -74.575 28.864 -83.927 L39.829 -73.124 Q32.572 -66.029 28.299 -56.165 Q24.026 -46.301 24.026 -35.14 Q24.026 -12.977 39.566 2.583 Q55.106 18.144 77.4 18.144 Q99.653 18.144 115.213 2.604 Q130.774 -12.936 130.774 -35.193 Q130.774 -46.301 126.743 -56.165 Q122.711 -66.029 115.294 -73.124 L126.097 -83.927 Q135.289 -74.575 140.691 -62.125 Q146.093 -49.676 146.093 -35.253 Q146.093 -21.04 140.686 -8.535 Q135.279 3.97 126.01 13.301 Q116.74 22.631 104.269 27.967 Q91.796 33.301 77.423 33.301 Z M69.821 -26.039 V-103.922 H84.979 V-26.039 H69.821 Z"/></g><g id="Semibold-L" transform="matrix(1 0 0 1 1970.27 1556)"><path d="M77.413 31.548 Q63.631 31.548 51.45 26.326 Q39.271 21.101 30.17 12 Q21.069 2.899 15.844 -9.269 Q10.622 -21.437 10.622 -35.219 Q10.622 -49.262 15.919 -61.393 Q21.214 -73.524 30.196 -82.596 L39.339 -73.545 Q31.942 -66.309 27.669 -56.388 Q23.396 -46.466 23.396 -35.178 Q23.396 -12.768 39.155 3.004 Q54.914 18.774 77.4 18.774 Q99.933 18.774 115.669 3.015 Q131.404 -12.744 131.404 -35.209 Q131.404 -46.466 127.304 -56.388 Q123.201 -66.309 115.715 -73.545 L124.766 -82.596 Q133.747 -73.524 139.009 -61.404 Q144.27 -49.285 144.27 -35.243 Q144.27 -21.461 139.006 -9.275 Q133.741 2.912 124.716 12.007 Q115.69 21.101 103.524 26.326 Q91.356 31.548 77.413 31.548 Z M71.013 -27.23 V-102.1 H83.787 V-27.23 H71.013 Z"/></g><g id="Medium-L" transform="matrix(1 0 0 1 1674.31 1556)"><path d="M77.405 30.234 Q63.947 30.234 52.002 25.094 Q40.058 19.953 31.137 11.033 Q22.217 2.112 17.076 -9.827 Q11.936 -21.766 11.936 -35.225 Q11.936 -48.981 17.154 -60.857 Q22.372 -72.735 31.195 -81.596 L38.969 -73.861 Q31.468 -66.519 27.195 -56.554 Q22.922 -46.588 22.922 -35.209 Q22.922 -12.61 38.845 3.32 Q54.77 19.248 77.4 19.248 Q100.143 19.248 116.011 3.325 Q131.878 -12.6 131.878 -35.222 Q131.878 -46.588 127.725 -56.554 Q123.571 -66.519 116.031 -73.861 L123.766 -81.596 Q132.589 -72.735 137.746 -60.862 Q142.903 -48.991 142.903 -35.235 Q142.903 -21.777 137.745 -9.83 Q132.588 2.117 123.745 11.036 Q114.904 19.953 102.965 25.094 Q91.026 30.234 77.405 30.234 Z M71.906 -28.124 V-100.733 H82.894 V-28.124 H71.906 Z"/></g><g id="Regular-L" transform="matrix(1 0 0 1 1378.56 1556)"><path d="M77.4 29.27 Q64.177 29.27 52.406 24.191 Q40.635 19.111 31.847 10.323 Q23.059 1.535 17.979 -10.236 Q12.9 -22.007 12.9 -35.23 Q12.9 -48.775 18.06 -60.466 Q23.22 -72.156 31.928 -80.864 L38.7 -74.091 Q31.121 -66.674 26.848 -56.676 Q22.575 -46.679 22.575 -35.23 Q22.575 -12.494 38.619 3.551 Q54.664 19.595 77.4 19.595 Q100.297 19.595 116.261 3.551 Q132.225 -12.494 132.225 -35.23 Q132.225 -46.679 128.032 -56.676 Q123.84 -66.674 116.261 -74.091 L123.034 -80.864 Q131.741 -72.156 136.821 -60.466 Q141.9 -48.775 141.9 -35.23 Q141.9 -22.007 136.821 -10.236 Q131.741 1.535 123.034 10.323 Q114.326 19.111 102.555 24.191 Q90.784 29.27 77.4 29.27 Z M72.562 -28.78 V-99.73 H82.237 V-28.78 H72.562 Z"/></g><g id="Light-L" transform="matrix(1 0 0 1 1082.77 1556)"><path d="M77.411 26.045 Q64.798 26.045 53.643 21.219 Q42.488 16.394 34.133 8.041 Q25.779 -0.311 20.951 -11.463 Q16.125 -22.615 16.125 -35.23 Q16.125 -48.03 21.006 -59.132 Q25.887 -70.234 34.161 -78.569 L39.321 -73.409 Q31.866 -66.116 27.654 -56.292 Q23.444 -46.471 23.444 -35.23 Q23.444 -12.803 39.208 2.962 Q54.973 18.726 77.4 18.726 Q99.925 18.726 115.64 2.962 Q131.356 -12.803 131.356 -35.23 Q131.356 -46.493 127.196 -56.304 Q123.034 -66.116 115.579 -73.409 L120.739 -78.569 Q129.074 -70.234 133.875 -59.132 Q138.675 -48.03 138.675 -35.203 Q138.675 -22.628 133.85 -11.473 Q129.026 -0.318 120.755 8.037 Q112.485 16.391 101.304 21.219 Q90.123 26.045 77.411 26.045 Z M73.741 -28.78 V-96.505 H81.059 V-28.78 H73.741 Z"/></g><g id="Thin-L" transform="matrix(1 0 0 1 787.282 1556)"><path d="M77.421 22.82 Q65.418 22.82 54.88 18.249 Q44.342 13.677 36.42 5.76 Q28.498 -2.158 23.925 -12.69 Q19.35 -23.222 19.35 -35.23 Q19.35 -47.287 23.952 -57.799 Q28.554 -68.31 36.393 -76.275 L39.94 -72.727 Q32.61 -65.558 28.461 -55.909 Q24.312 -46.261 24.312 -35.23 Q24.312 -13.115 39.798 2.372 Q55.285 17.858 77.4 17.858 Q99.553 17.858 115.021 2.372 Q130.488 -13.115 130.488 -35.23 Q130.488 -46.306 126.359 -55.931 Q122.228 -65.558 114.897 -72.727 L118.445 -76.275 Q126.407 -68.31 130.929 -57.799 Q135.45 -47.287 135.45 -35.177 Q135.45 -23.248 130.88 -12.71 Q126.31 -2.172 118.477 5.75 Q110.643 13.672 100.052 18.245 Q89.463 22.82 77.421 22.82 Z M74.92 -28.78 V-93.28 H79.88 V-28.78 H74.92 Z"/></g><g id="Ultralight-L" transform="matrix(1 0 0 1 491.205 1556)"><path d="M77.427 20.885 Q65.79 20.885 55.622 16.467 Q45.453 12.047 37.792 4.391 Q30.13 -3.265 25.708 -13.426 Q21.285 -23.586 21.285 -35.23 Q21.285 -46.84 25.719 -56.999 Q30.154 -67.157 37.733 -74.897 L40.312 -72.317 Q33.056 -65.222 28.944 -55.68 Q24.832 -46.135 24.832 -35.23 Q24.832 -13.3 40.151 2.019 Q55.47 17.338 77.4 17.338 Q99.33 17.338 114.649 2.019 Q129.968 -13.3 129.968 -35.23 Q129.968 -46.195 125.856 -55.709 Q121.744 -65.222 114.487 -72.317 L117.068 -74.897 Q124.808 -67.157 129.161 -56.999 Q133.515 -46.84 133.515 -35.161 Q133.515 -23.62 129.098 -13.452 Q124.682 -3.283 117.109 4.378 Q109.537 12.04 99.303 16.462 Q89.066 20.885 77.427 20.885 Z M75.626 -28.78 V-91.345 H79.174 V-28.78 H75.626 Z"/></g><g id="Bold-M" transform="matrix(1 0 0 1 2281.8 1126)"><path d="M60 19.02 Q48.625 19.02 38.751 14.76 Q28.879 10.499 21.575 3.195 Q14.271 -4.109 10.01 -13.981 Q5.75 -23.855 5.75 -35.23 Q5.75 -46.647 9.938 -56.501 Q14.125 -66.355 21.5 -73.73 L32.75 -62.605 Q27.5 -57.355 24.5 -50.334 Q21.5 -43.312 21.5 -35.201 Q21.5 -18.98 32.625 -7.855 Q43.75 3.27 60 3.27 Q76.25 3.27 87.375 -7.855 Q98.5 -18.98 98.5 -35.201 Q98.5 -43.312 95.562 -50.334 Q92.625 -57.355 87.375 -62.605 L98.5 -73.73 Q105.875 -66.355 110.062 -56.501 Q114.25 -46.647 114.25 -35.23 Q114.25 -23.855 109.99 -13.981 Q105.729 -4.109 98.425 3.195 Q91.121 10.499 81.249 14.76 Q71.375 19.02 60 19.02 Z M52.125 -27.355 V-89.48 H67.875 V-27.355 H52.125 Z"/></g><g id="Semibold-M" transform="matrix(1 0 0 1 1985.97 1126)"><path d="M60 17.173 Q49.06 17.173 39.511 13.053 Q29.964 8.933 22.901 1.869 Q15.838 -5.194 11.717 -14.741 Q7.598 -24.29 7.598 -35.23 Q7.598 -46.249 11.676 -55.759 Q15.755 -65.267 22.859 -72.371 L32.261 -63.04 Q26.902 -57.681 23.875 -50.56 Q20.848 -43.44 20.848 -35.214 Q20.848 -18.762 32.19 -7.42 Q43.532 3.923 60 3.923 Q76.468 3.923 87.81 -7.42 Q99.153 -18.762 99.153 -35.214 Q99.153 -43.44 96.16 -50.56 Q93.169 -57.681 87.81 -63.04 L97.141 -72.371 Q104.245 -65.267 108.324 -55.759 Q112.403 -46.249 112.403 -35.23 Q112.403 -24.29 108.282 -14.741 Q104.162 -5.194 97.099 1.869 Q90.036 8.933 80.489 13.053 Q70.94 17.173 60 17.173 Z M53.375 -28.605 V-87.632 H66.625 V-28.605 H53.375 Z"/></g><g id="Medium-M" transform="matrix(1 0 0 1 1689.91 1126)"><path d="M60 15.786 Q49.386 15.786 40.083 11.771 Q30.777 7.756 23.895 0.875 Q17.014 -6.007 12.999 -15.312 Q8.984 -24.616 8.984 -35.23 Q8.984 -45.949 12.981 -55.201 Q16.979 -64.452 23.878 -71.352 L31.894 -63.366 Q26.454 -57.926 23.406 -50.73 Q20.359 -43.535 20.359 -35.224 Q20.359 -18.6 31.864 -7.094 Q43.37 4.411 60 4.411 Q76.63 4.411 88.136 -7.094 Q99.641 -18.6 99.641 -35.224 Q99.641 -43.535 96.609 -50.73 Q93.576 -57.926 88.136 -63.366 L96.123 -71.352 Q103.021 -64.452 107.019 -55.201 Q111.016 -45.949 111.016 -35.23 Q111.016 -24.616 107.001 -15.312 Q102.986 -6.007 96.105 0.875 Q89.222 7.756 79.918 11.771 Q70.614 15.786 60 15.786 Z M54.312 -29.542 V-86.246 H65.688 V-29.542 H54.312 Z"/></g><g id="Regular-M" transform="matrix(1 0 0 1 1394.06 1126)"><path d="M60 14.77 Q49.625 14.77 40.5 10.833 Q31.375 6.895 24.625 0.145 Q17.875 -6.605 13.938 -15.73 Q10 -24.855 10 -35.23 Q10 -45.73 13.938 -54.792 Q17.875 -63.855 24.625 -70.605 L31.625 -63.605 Q26.125 -58.105 23.062 -50.855 Q20 -43.605 20 -35.23 Q20 -18.48 31.625 -6.855 Q43.25 4.77 60 4.77 Q76.75 4.77 88.375 -6.855 Q100 -18.48 100 -35.23 Q100 -43.605 96.938 -50.855 Q93.875 -58.105 88.375 -63.605 L95.375 -70.605 Q102.125 -63.855 106.062 -54.792 Q110 -45.73 110 -35.23 Q110 -24.855 106.062 -15.73 Q102.125 -6.605 95.375 0.145 Q88.625 6.895 79.5 10.833 Q70.375 14.77 60 14.77 Z M55 -30.23 V-85.23 H65 V-30.23 H55 Z"/></g><g id="Light-M" transform="matrix(1 0 0 1 1098.18 1126)"><path d="M60.009 12.27 Q50.154 12.27 41.483 8.529 Q32.811 4.789 26.398 -1.624 Q19.984 -8.036 16.241 -16.705 Q12.5 -25.374 12.5 -35.23 Q12.5 -45.152 16.221 -53.759 Q19.942 -62.365 26.404 -68.826 L31.672 -63.557 Q26.172 -58.057 23.086 -50.822 Q20 -43.587 20 -35.23 Q20 -18.48 31.625 -6.855 Q43.25 4.77 60 4.77 Q76.75 4.77 88.375 -6.855 Q100 -18.48 100 -35.23 Q100 -43.605 96.914 -50.831 Q93.828 -58.057 88.328 -63.557 L93.596 -68.826 Q100.058 -62.365 103.779 -53.759 Q107.5 -45.152 107.5 -35.209 Q107.5 -25.384 103.76 -16.712 Q100.02 -8.041 93.609 -1.627 Q87.198 4.786 78.53 8.529 Q69.862 12.27 60.009 12.27 Z M56.25 -30.23 V-82.73 H63.75 V-30.23 H56.25 Z"/></g><g id="Thin-M" transform="matrix(1 0 0 1 802.565 1126)"><path d="M60.016 9.77 Q50.682 9.77 42.465 6.226 Q34.249 2.683 28.17 -3.392 Q22.091 -9.467 18.546 -17.68 Q15 -25.892 15 -35.23 Q15 -44.576 18.505 -52.725 Q22.01 -60.874 28.183 -67.047 L31.721 -63.509 Q26.221 -58.009 23.11 -50.789 Q20 -43.57 20 -35.23 Q20 -18.48 31.625 -6.855 Q43.25 4.77 60 4.77 Q76.75 4.77 88.375 -6.855 Q100 -18.48 100 -35.23 Q100 -43.605 96.89 -50.807 Q93.779 -58.009 88.279 -63.509 L91.817 -67.047 Q97.99 -60.874 101.495 -52.725 Q105 -44.576 105 -35.189 Q105 -25.912 101.457 -17.695 Q97.915 -9.479 91.843 -3.4 Q85.77 2.679 77.56 6.224 Q69.351 9.77 60.016 9.77 Z M57.5 -30.23 V-80.23 H62.5 V-30.23 H57.5 Z"/></g><g id="Ultralight-M" transform="matrix(1 0 0 1 506.415 1126)"><path d="M60.021 8.27 Q51 8.27 43.055 4.845 Q35.11 1.419 29.234 -4.454 Q23.356 -10.326 19.929 -18.265 Q16.5 -26.204 16.5 -35.23 Q16.5 -44.23 19.875 -52.105 Q23.25 -59.98 29.25 -65.98 L31.75 -63.48 Q26.25 -57.98 23.125 -50.77 Q20 -43.559 20 -35.23 Q20 -18.48 31.625 -6.855 Q43.25 4.77 60 4.77 Q76.75 4.77 88.375 -6.855 Q100 -18.48 100 -35.23 Q100 -43.605 96.875 -50.792 Q93.75 -57.98 88.25 -63.48 L90.75 -65.98 Q96.75 -59.98 100.125 -52.105 Q103.5 -44.23 103.5 -35.176 Q103.5 -26.23 100.076 -18.285 Q96.653 -10.34 90.782 -4.464 Q84.912 1.414 76.979 4.841 Q69.044 8.27 60.021 8.27 Z M58.25 -30.23 V-78.73 H61.75 V-30.23 H58.25 Z"/></g><g id="Bold-S" transform="matrix(1 0 0 1 2294.23 696)"><path d="M47.34 5.995 Q38.76 5.995 31.265 2.782 Q23.772 -0.432 18.157 -6.047 Q12.542 -11.662 9.328 -19.155 Q6.115 -26.65 6.115 -35.23 Q6.115 -43.844 9.32 -51.372 Q12.525 -58.9 18.147 -64.522 L26.53 -56.237 Q22.585 -52.292 20.169 -46.851 Q17.753 -41.41 17.753 -35.207 Q17.753 -22.803 26.333 -14.223 Q34.913 -5.642 47.34 -5.642 Q59.767 -5.642 68.347 -14.223 Q76.928 -22.803 76.928 -35.207 Q76.928 -41.41 74.659 -46.851 Q72.391 -52.292 68.347 -56.237 L76.632 -64.522 Q82.352 -58.9 85.459 -51.372 Q88.565 -43.844 88.565 -35.23 Q88.565 -26.65 85.352 -19.155 Q82.138 -11.662 76.523 -6.047 Q70.908 -0.432 63.464 2.782 Q56.019 5.995 47.34 5.995 Z M41.521 -28.228 V-76.455 H53.159 V-28.228 H41.521 Z"/></g><g id="Semibold-S" transform="matrix(1 0 0 1 1998.1 696)"><path d="M47.34 4.538 Q39.103 4.538 31.865 1.435 Q24.628 -1.668 19.203 -7.093 Q13.778 -12.518 10.675 -19.755 Q7.572 -26.993 7.572 -35.23 Q7.572 -43.529 10.692 -50.786 Q13.811 -58.042 19.219 -63.45 L26.145 -56.58 Q22.114 -52.55 19.676 -47.029 Q17.238 -41.51 17.238 -35.217 Q17.238 -22.632 25.99 -13.88 Q34.742 -5.128 47.34 -5.128 Q59.938 -5.128 68.69 -13.88 Q77.442 -22.632 77.442 -35.217 Q77.442 -41.51 75.131 -47.029 Q72.82 -52.55 68.69 -56.58 L75.56 -63.45 Q81.066 -58.042 84.087 -50.786 Q87.108 -43.529 87.108 -35.23 Q87.108 -26.993 84.005 -19.755 Q80.902 -12.518 75.477 -7.093 Q70.052 -1.668 62.865 1.435 Q55.676 4.538 47.34 4.538 Z M42.507 -29.214 V-74.998 H52.173 V-29.214 H42.507 Z"/></g><g id="Medium-S" transform="matrix(1 0 0 1 1701.85 696)"><path d="M47.34 3.444 Q39.36 3.444 32.315 0.424 Q25.27 -2.596 19.987 -7.877 Q14.706 -13.16 11.686 -20.205 Q8.666 -27.25 8.666 -35.23 Q8.666 -43.293 11.722 -50.346 Q14.777 -57.399 20.023 -62.646 L25.855 -56.838 Q21.76 -52.743 19.306 -47.164 Q16.852 -41.585 16.852 -35.225 Q16.852 -22.503 25.732 -13.622 Q34.613 -4.742 47.34 -4.742 Q60.067 -4.742 68.948 -13.622 Q77.828 -22.503 77.828 -35.225 Q77.828 -41.585 75.485 -47.164 Q73.141 -52.743 68.948 -56.838 L74.756 -62.646 Q80.1 -57.399 83.057 -50.346 Q86.014 -43.293 86.014 -35.23 Q86.014 -27.25 82.994 -20.205 Q79.974 -13.16 74.693 -7.877 Q69.41 -2.596 62.414 0.424 Q55.418 3.444 47.34 3.444 Z M43.247 -29.954 V-73.904 H51.433 V-29.954 H43.247 Z"/></g><g id="Regular-S" transform="matrix(1 0 0 1 1405.73 696)"><path d="M47.34 2.642 Q39.549 2.642 32.645 -0.317 Q25.741 -3.275 20.563 -8.453 Q15.386 -13.631 12.427 -20.535 Q9.468 -27.439 9.468 -35.23 Q9.468 -43.12 12.476 -50.024 Q15.484 -56.927 20.613 -62.056 L25.643 -57.026 Q21.5 -52.884 19.035 -47.262 Q16.569 -41.641 16.569 -35.23 Q16.569 -22.409 25.544 -13.434 Q34.519 -4.459 47.34 -4.459 Q60.161 -4.459 69.136 -13.434 Q78.111 -22.409 78.111 -35.23 Q78.111 -41.641 75.744 -47.262 Q73.377 -52.884 69.136 -57.026 L74.166 -62.056 Q79.393 -56.927 82.303 -50.024 Q85.212 -43.12 85.212 -35.23 Q85.212 -27.439 82.253 -20.535 Q79.294 -13.631 74.117 -8.453 Q68.939 -3.275 62.084 -0.317 Q55.23 2.642 47.34 2.642 Z M43.79 -30.496 V-73.102 H50.891 V-30.496 H43.79 Z"/></g><g id="Light-S" transform="matrix(1 0 0 1 1109.75 696)"><path d="M47.347 0.67 Q39.966 0.67 33.42 -2.134 Q26.874 -4.937 21.962 -9.849 Q17.049 -14.76 14.244 -21.304 Q11.441 -27.848 11.441 -35.23 Q11.441 -42.664 14.278 -49.208 Q17.115 -55.752 22.016 -60.653 L25.68 -56.989 Q21.538 -52.846 19.053 -47.237 Q16.569 -41.627 16.569 -35.23 Q16.569 -22.409 25.544 -13.434 Q34.519 -4.459 47.34 -4.459 Q60.161 -4.459 69.136 -13.434 Q78.111 -22.409 78.111 -35.23 Q78.111 -41.641 75.725 -47.244 Q73.34 -52.846 69.099 -56.989 L72.763 -60.653 Q77.762 -55.752 80.501 -49.208 Q83.24 -42.664 83.24 -35.213 Q83.24 -27.856 80.437 -21.31 Q77.634 -14.764 72.723 -9.852 Q67.813 -4.939 61.319 -2.134 Q54.826 0.67 47.347 0.67 Z M44.776 -30.496 V-71.129 H49.904 V-30.496 H44.776 Z"/></g><g id="Thin-S" transform="matrix(1 0 0 1 814.015 696)"><path d="M47.353 -1.303 Q40.383 -1.303 34.195 -3.951 Q28.009 -6.599 23.36 -11.244 Q18.712 -15.89 16.063 -22.073 Q13.413 -28.257 13.413 -35.23 Q13.413 -42.21 16.08 -48.392 Q18.747 -54.575 23.419 -59.249 L25.718 -56.95 Q21.576 -52.808 19.072 -47.21 Q16.569 -41.613 16.569 -35.23 Q16.569 -22.409 25.544 -13.434 Q34.519 -4.459 47.34 -4.459 Q60.161 -4.459 69.136 -13.434 Q78.111 -22.409 78.111 -35.23 Q78.111 -41.641 75.707 -47.225 Q73.301 -52.808 69.06 -56.95 L71.359 -59.249 Q76.131 -54.575 78.699 -48.392 Q81.267 -42.21 81.267 -35.197 Q81.267 -28.273 78.62 -22.085 Q75.973 -15.899 71.33 -11.25 Q66.686 -6.602 60.554 -3.953 Q54.422 -1.303 47.353 -1.303 Z M45.762 -30.496 V-69.157 H48.918 V-30.496 H45.762 Z"/></g><g id="Ultralight-S" transform="matrix(1 0 0 1 517.792 696)"><path d="M47.357 -2.486 Q40.634 -2.486 34.661 -5.041 Q28.688 -7.596 24.2 -12.082 Q19.71 -16.567 17.154 -22.535 Q14.597 -28.503 14.597 -35.23 Q14.597 -41.936 17.161 -47.903 Q19.725 -53.87 24.262 -58.407 L25.741 -56.927 Q21.599 -52.785 19.084 -47.195 Q16.569 -41.604 16.569 -35.23 Q16.569 -22.409 25.544 -13.434 Q34.519 -4.459 47.34 -4.459 Q60.161 -4.459 69.136 -13.434 Q78.111 -22.409 78.111 -35.23 Q78.111 -41.641 75.695 -47.213 Q73.278 -52.785 69.038 -56.927 L70.517 -58.407 Q75.152 -53.87 77.618 -47.903 Q80.084 -41.936 80.084 -35.188 Q80.084 -28.523 77.53 -22.551 Q74.977 -16.578 70.493 -12.09 Q66.01 -7.6 60.095 -5.044 Q54.18 -2.486 47.357 -2.486 Z M46.354 -30.496 V-67.973 H48.326 V-30.496 H46.354 Z"/></g></g></svg>