<svg xmlns="http://www.w3.org/2000/svg" version="1.1" width="3300" height="2000"><g id="Notes"><style>
    text {
      font-family: monospace;
      text-anchor: middle;
    }
    text.emphasis {
      font-weight:bold;
    }
    text.lanchor {
      text-anchor: start;
    }
  </style><rect height="2200" id="artboard" fill="white" width="3300" x="0" y="0"/><line id="" style="fill:none;stroke:black;stroke-width:0.5;" x1="263" x2="3036" y1="292" y2="292"/><text class="lanchor emphasis" transform="matrix(1 0 0 1 263 322)">Weight/Scale Variations</text><text transform="matrix(1 0 0 1 559.711 322)">Ultralight</text><text transform="matrix(1 0 0 1 856.422 322)">Thin</text><text transform="matrix(1 0 0 1 1153.13 322)">Light</text><text transform="matrix(1 0 0 1 1449.84 322)">Regular</text><text transform="matrix(1 0 0 1 1746.56 322)">Medium</text><text transform="matrix(1 0 0 1 2043.27 322)">Semibold</text><text transform="matrix(1 0 0 1 2339.98 322)">Bold</text><text transform="matrix(1 0 0 1 2636.69 322)">Heavy</text><text transform="matrix(1 0 0 1 2933.4 322)">Black</text><text id="template-version" style="text-anchor: end;" transform="matrix(1 0 0 1 3036 1933)">Template v.1.0</text><text class="lanchor" transform="matrix(1 0 0 1 263 726)">Small</text><text class="lanchor" transform="matrix(1 0 0 1 263 1156)">Medium</text><text class="lanchor" transform="matrix(1 0 0 1 263 1586)">Large</text></g><g id="Guides"><g id="H-reference" style="fill:#27AAE1;stroke:none;" transform="matrix(1 0 0 1 339 696)"><path d="M 54.9316 0 L 57.666 0 L 30.5664 -70.459 L 28.0762 -70.459 L 0.976562 0 L 3.66211 0 L 12.9395 -24.4629 L 45.7031 -24.4629 Z M 29.1992 -67.0898 L 29.4434 -67.0898 L 44.8242 -26.709 L 13.8184 -26.709 Z"/></g><line id="Baseline-S" style="fill:none;stroke:#27AAE1;opacity:1;stroke-width:0.577;" x1="263" x2="3036" y1="696" y2="696"/><line id="Capline-S" style="fill:none;stroke:#27AAE1;opacity:1;stroke-width:0.577;" x1="263" x2="3036" y1="625.541" y2="625.541"/><g id="H-reference" style="fill:#27AAE1;stroke:none;" transform="matrix(1 0 0 1 339 1126)"><path d="M 54.9316 0 L 57.666 0 L 30.5664 -70.459 L 28.0762 -70.459 L 0.976562 0 L 3.66211 0 L 12.9395 -24.4629 L 45.7031 -24.4629 Z M 29.1992 -67.0898 L 29.4434 -67.0898 L 44.8242 -26.709 L 13.8184 -26.709 Z"/></g><line id="Baseline-M" style="fill:none;stroke:#27AAE1;opacity:1;stroke-width:0.577;" x1="263" x2="3036" y1="1126" y2="1126"/><line id="Capline-M" style="fill:none;stroke:#27AAE1;opacity:1;stroke-width:0.577;" x1="263" x2="3036" y1="1055.54" y2="1055.54"/><g id="H-reference" style="fill:#27AAE1;stroke:none;" transform="matrix(1 0 0 1 339 1556)"><path d="M 54.9316 0 L 57.666 0 L 30.5664 -70.459 L 28.0762 -70.459 L 0.976562 0 L 3.66211 0 L 12.9395 -24.4629 L 45.7031 -24.4629 Z M 29.1992 -67.0898 L 29.4434 -67.0898 L 44.8242 -26.709 L 13.8184 -26.709 Z"/></g><line id="Baseline-L" style="fill:none;stroke:#27AAE1;opacity:1;stroke-width:0.577;" x1="263" x2="3036" y1="1556" y2="1556"/><line id="Capline-L" style="fill:none;stroke:#27AAE1;opacity:1;stroke-width:0.577;" x1="263" x2="3036" y1="1485.54" y2="1485.54"/><rect height="119.336" id="left-margin" style="fill:darkred;stroke:none;opacity:0.4;" width="12.4512" x="1394.06" y="1030.79"/><rect height="119.336" id="right-margin" style="fill:darkgreen;stroke:none;opacity:0.4;" width="12.4512" x="1502.5112" y="1030.79"/><rect x="1406.5112" y="1045" width="96" height="96" fill="none" stroke="blue" stroke-dasharray="5"/><rect x="1394.06" y="1030.79" width="120.9024" height="119.336" fill="none" stroke="blue"/></g><g id="Symbols"><g id="Bold-L" transform="matrix(1 0 0 1 2266 1556)"><path d="M124.808 -56.676  116.614 -75.251  97.395 -83.766  116.614 -92.121  124.808 -109.889  132.709 -92.151  151.898 -83.766  132.709 -75.22  124.808 -56.676 Z M124.808 39.268  116.614 21.338  97.395 12.984  116.614 4.629  124.808 -14.106  132.709 4.599  151.898 12.984  132.709 21.369  124.808 39.268 Z M60.308 15.403  44.042 -19.397  8.707 -35.391  44.042 -51.386  60.308 -86.024  76.786 -51.386  112.069 -35.391  76.786 -19.397  60.308 15.403 Z M60.308 -12.977  68.047 -28.457  83.85 -35.391  68.047 -42.325  60.308 -57.805  52.729 -42.325  36.765 -35.391  52.729 -28.457  60.308 -12.977 Z"/></g><g id="Semibold-L" transform="matrix(1 0 0 1 1970.27 1556)"><path d="M124.667 -58.218  117.021 -75.728  98.867 -83.766  117.021 -91.643  124.667 -108.347  132.148 -91.661  150.285 -83.766  132.148 -75.71  124.667 -58.218 Z M124.667 37.726  117.021 20.861  98.867 12.984  117.021 5.107  124.667 -12.565  132.148 5.089  150.285 12.984  132.148 20.879  124.667 37.726 Z M60.167 13.44  44.523 -20.042  10.46 -35.391  44.523 -50.741  60.167 -84.061  76 -50.741  109.966 -35.391  76 -20.042  60.167 13.44 Z M60.167 -12.977  67.907 -28.457  83.71 -35.391  67.907 -42.325  60.167 -57.805  52.588 -42.325  36.625 -35.391  52.588 -28.457  60.167 -12.977 Z"/></g><g id="Medium-L" transform="matrix(1 0 0 1 1674.31 1556)"><path d="M124.562 -59.376  117.327 -76.086  99.972 -83.766  117.327 -91.285  124.562 -107.189  131.727 -91.292  149.076 -83.766  131.727 -76.079  124.562 -59.376 Z M124.562 36.568  117.327 20.503  99.972 12.984  117.327 5.465  124.562 -11.407  131.727 5.458  149.076 12.984  131.727 20.509  124.562 36.568 Z M60.062 11.968  44.886 -20.524  11.774 -35.391  44.886 -50.258  60.062 -82.589  75.413 -50.258  108.387 -35.391  75.413 -20.524  60.062 11.968 Z M60.062 -12.977  67.802 -28.457  83.605 -35.391  67.802 -42.325  60.062 -57.805  52.484 -42.325  36.52 -35.391  52.484 -28.457  60.062 -12.977 Z"/></g><g id="Regular-L" transform="matrix(1 0 0 1 1378.56 1556)"><path d="M124.485 -60.224  117.551 -76.349  100.781 -83.766  117.551 -91.022  124.485 -106.341  131.419 -91.022  148.189 -83.766  131.419 -76.349  124.485 -60.224 Z M124.485 35.72  117.551 20.24  100.781 12.984  117.551 5.728  124.485 -10.559  131.419 5.728  148.189 12.984  131.419 20.24  124.485 35.72 Z M59.985 10.888  45.15 -20.879  12.739 -35.391  45.15 -49.904  59.985 -81.509  74.981 -49.904  107.231 -35.391  74.981 -20.879  59.985 10.888 Z M59.985 -12.977  67.725 -28.457  83.528 -35.391  67.725 -42.325  59.985 -57.805  52.406 -42.325  36.443 -35.391  52.406 -28.457  59.985 -12.977 Z"/></g><g id="Light-L" transform="matrix(1 0 0 1 1082.77 1556)"><path d="M120.763 -61.34  114.76 -75.294  100.347 -81.596  114.76 -87.859  120.763 -101.193  126.767 -87.859  141.181 -81.596  126.767 -75.294  120.763 -61.34 Z M120.763 30.634  114.76 17.139  100.347 10.937  114.76 4.673  120.763 -9.38  126.767 4.673  141.181 10.937  126.767 17.139  120.763 30.634 Z M59.116 4.562  46.39 -22.864  18.507 -35.33  46.39 -47.795  59.116 -75.12  71.942 -47.795  99.727 -35.33  71.942 -22.864  59.116 4.562 Z M59.116 -13.474  66.485 -28.519  81.791 -35.33  66.485 -42.14  59.116 -57.184  51.848 -42.14  36.443 -35.33  51.848 -28.519  59.116 -13.474 Z"/></g><g id="Thin-L" transform="matrix(1 0 0 1 787.282 1556)"><path d="M117.043 -62.457  111.969 -74.24  99.914 -79.425  111.969 -84.697  117.043 -96.045  122.116 -84.697  134.173 -79.425  122.116 -74.24  117.043 -62.457 Z M117.043 25.548  111.969 14.038  99.914 8.891  111.969 3.618  117.043 -8.201  122.116 3.618  134.173 8.891  122.116 14.038  117.043 25.548 Z M58.248 -1.764  47.63 -24.849  24.275 -35.267  47.63 -45.687  58.248 -68.733  68.904 -45.687  92.222 -35.267  68.904 -24.849  58.248 -1.764 Z M58.248 -13.969  65.245 -28.582  80.054 -35.267  65.245 -41.953  58.248 -56.565  51.29 -41.953  36.443 -35.267  51.29 -28.582  58.248 -13.969 Z"/></g><g id="Ultralight-L" transform="matrix(1 0 0 1 491.205 1556)"><path d="M114.81 -63.126  110.295 -73.607  99.653 -78.122  110.295 -82.799  114.81 -92.957  119.325 -82.799  129.968 -78.122  119.325 -73.607  114.81 -63.126 Z M114.81 22.498  110.295 12.178  99.653 7.663  110.295 2.986  114.81 -7.495  119.325 2.986  129.968 7.663  119.325 12.178  114.81 22.498 Z M57.727 -5.56  48.375 -26.039  27.735 -35.23  48.375 -44.421  57.727 -64.9  67.08 -44.421  87.72 -35.23  67.08 -26.039  57.727 -5.56 Z M57.727 -14.267  64.5 -28.619  79.013 -35.23  64.5 -41.841  57.727 -56.192  50.955 -41.841  36.443 -35.23  50.955 -28.619  57.727 -14.267 Z"/></g><g id="Bold-M" transform="matrix(1 0 0 1 2281.8 1126)"><path d="M95.25 -46.605  87.75 -62.855  71.5 -70.23  87.75 -77.605  95.25 -93.855  102.625 -77.605  118.875 -70.23  102.625 -62.855  95.25 -46.605 Z M95.25 23.395  87.75 7.145  71.5 -0.23  87.75 -7.605  95.25 -23.855  102.625 -7.605  118.875 -0.23  102.625 7.145  95.25 23.395 Z M50.375 9.395  36.375 -21.23  5.75 -35.23  36.375 -49.23  50.375 -79.855  64.375 -49.23  95 -35.23  64.375 -21.23  50.375 9.395 Z M50.375 -19.48  55.375 -30.23  66.125 -35.23  55.375 -40.23  50.375 -50.98  45.375 -40.23  34.625 -35.23  45.375 -30.23  50.375 -19.48 Z"/></g><g id="Semibold-M" transform="matrix(1 0 0 1 1985.97 1126)"><path d="M95.141 -48.181  88.185 -63.344  73.021 -70.23  88.185 -77.116  95.141 -92.279  102.028 -77.116  117.19 -70.23  102.028 -63.344  95.141 -48.181 Z M95.141 21.819  88.185 6.656  73.021 -0.23  88.185 -7.116  95.141 -22.279  102.028 -7.116  117.19 -0.23  102.028 6.656  95.141 21.819 Z M50.212 7.384  36.864 -21.882  7.598 -35.23  36.864 -48.577  50.212 -77.844  63.56 -48.577  92.826 -35.23  63.56 -21.882  50.212 7.384 Z M50.212 -19.48  55.212 -30.23  65.963 -35.23  55.212 -40.23  50.212 -50.98  45.212 -40.23  34.462 -35.23  45.212 -30.23  50.212 -19.48 Z"/></g><g id="Medium-M" transform="matrix(1 0 0 1 1689.91 1126)"><path d="M95.06 -49.364  88.511 -63.711  74.162 -70.23  88.511 -76.749  95.06 -91.096  101.579 -76.749  115.926 -70.23  101.579 -63.711  95.06 -49.364 Z M95.06 20.636  88.511 6.289  74.162 -0.23  88.511 -6.749  95.06 -21.096  101.579 -6.749  115.926 -0.23  101.579 6.289  95.06 20.636 Z M50.09 5.876  37.231 -22.371  8.984 -35.23  37.231 -48.089  50.09 -76.336  62.949 -48.089  91.196 -35.23  62.949 -22.371  50.09 5.876 Z M50.09 -19.48  55.09 -30.23  65.84 -35.23  55.09 -40.23  50.09 -50.98  45.09 -40.23  34.34 -35.23  45.09 -30.23  50.09 -19.48 Z"/></g><g id="Regular-M" transform="matrix(1 0 0 1 1394.06 1126)"><path d="M95 -50.23  88.75 -63.98  75 -70.23  88.75 -76.48  95 -90.23  101.25 -76.48  115 -70.23  101.25 -63.98  95 -50.23 Z M95 19.77  88.75 6.02  75 -0.23  88.75 -6.48  95 -20.23  101.25 -6.48  115 -0.23  101.25 6.02  95 19.77 Z M50 4.77  37.5 -22.73  10 -35.23  37.5 -47.73  50 -75.23  62.5 -47.73  90 -35.23  62.5 -22.73  50 4.77 Z M50 -19.48  55 -30.23  65.75 -35.23  55 -40.23  50 -50.98  45 -40.23  34.25 -35.23  45 -30.23  50 -19.48 Z"/></g><g id="Light-M" transform="matrix(1 0 0 1 1098.18 1126)"><path d="M92.5 -52.25  87.211 -63.98  75.481 -69.269  87.211 -74.556  92.5 -86.287  97.789 -74.556  109.519 -69.269  97.789 -63.98  92.5 -52.25 Z M92.5 15.828  87.211 4.096  75.481 -1.191  87.211 -6.48  92.5 -18.21  97.789 -6.48  109.519 -1.191  97.789 4.096  92.5 15.828 Z M48.365 -1.289  37.789 -24.654  14.424 -35.23  37.789 -45.806  48.365 -69.171  58.943 -45.806  82.308 -35.23  58.943 -24.654  48.365 -1.289 Z M48.365 -19.48  53.365 -30.23  64.115 -35.23  53.365 -40.23  48.365 -50.98  43.365 -40.23  32.615 -35.23  43.365 -30.23  48.365 -19.48 Z"/></g><g id="Thin-M" transform="matrix(1 0 0 1 802.565 1126)"><path d="M90 -54.269  85.672 -63.98  75.961 -68.307  85.672 -72.634  90 -82.345  94.328 -72.634  104.039 -68.307  94.328 -63.98  90 -54.269 Z M90 11.885  85.672 2.174  75.961 -2.152  85.672 -6.48  90 -16.191  94.328 -6.48  104.039 -2.152  94.328 2.174  90 11.885 Z M46.731 -7.345  38.078 -26.576  18.846 -35.23  38.078 -43.884  46.731 -63.115  55.385 -43.884  74.615 -35.23  55.385 -26.576  46.731 -7.345 Z M46.731 -19.48  51.731 -30.23  62.481 -35.23  51.731 -40.23  46.731 -50.98  41.731 -40.23  30.981 -35.23  41.731 -30.23  46.731 -19.48 Z"/></g><g id="Ultralight-M" transform="matrix(1 0 0 1 506.415 1126)"><path d="M88.5 -55.48  84.75 -63.98  76.25 -67.73  84.75 -71.48  88.5 -79.98  92.25 -71.48  100.75 -67.73  92.25 -63.98  88.5 -55.48 Z M88.5 9.52  84.75 1.02  76.25 -2.73  84.75 -6.48  88.5 -14.98  92.25 -6.48  100.75 -2.73  92.25 1.02  88.5 9.52 Z M45.75 -10.98  38.25 -27.73  21.5 -35.23  38.25 -42.73  45.75 -59.48  53.25 -42.73  70 -35.23  53.25 -27.73  45.75 -10.98 Z M45.75 -19.48  50.75 -30.23  61.5 -35.23  50.75 -40.23  45.75 -50.98  40.75 -40.23  30 -35.23  40.75 -30.23  45.75 -19.48 Z"/></g><g id="Bold-S" transform="matrix(1 0 0 1 2294.23 696)"><path d="M73.574 -41.936  67.361 -55.251  54.047 -61.267  67.361 -67.382  73.574 -80.696  79.59 -67.382  92.905 -61.267  79.59 -55.251  73.574 -41.936 Z M73.574 10.138  67.46 -3.275  54.047 -9.292  67.46 -15.308  73.574 -28.721  79.59 -15.308  93.003 -9.292  79.59 -3.275  73.574 10.138 Z M40.535 -0.908  29.785 -24.578  6.115 -35.329  29.785 -46.079  40.535 -69.749  51.285 -46.079  74.955 -35.329  51.285 -24.578  40.535 -0.908 Z M40.535 -21.718  44.776 -31.088  54.145 -35.329  44.776 -39.569  40.535 -48.939  36.294 -39.569  26.925 -35.329  36.294 -31.088  40.535 -21.718 Z"/></g><g id="Semibold-S" transform="matrix(1 0 0 1 1998.1 696)"><path d="M73.488 -43.18  67.704 -55.636  55.247 -61.267  67.704 -66.996  73.488 -79.452  79.119 -66.996  91.575 -61.267  79.119 -55.636  73.488 -43.18 Z M73.488 8.894  67.803 -3.661  55.247 -9.292  67.803 -14.922  73.488 -27.477  79.119 -14.922  91.674 -9.292  79.119 -3.661  73.488 8.894 Z M40.407 -2.495  30.17 -25.093  7.572 -35.329  30.17 -45.564  40.407 -68.162  50.642 -45.564  73.24 -35.329  50.642 -25.093  40.407 -2.495 Z M40.407 -21.718  44.648 -31.088  54.017 -35.329  44.648 -39.569  40.407 -48.939  36.166 -39.569  26.796 -35.329  36.166 -31.088  40.407 -21.718 Z"/></g><g id="Medium-S" transform="matrix(1 0 0 1 1701.85 696)"><path d="M73.424 -44.113  67.962 -55.926  56.147 -61.267  67.962 -66.706  73.424 -78.519  78.765 -66.706  90.578 -61.267  78.765 -55.926  73.424 -44.113 Z M73.424 7.961  68.06 -3.951  56.147 -9.292  68.06 -14.632  73.424 -26.544  78.765 -14.632  90.677 -9.292  78.765 -3.951  73.424 7.961 Z M40.31 -3.685  30.46 -25.479  8.666 -35.329  30.46 -45.178  40.31 -66.972  50.16 -45.178  71.954 -35.329  50.16 -25.479  40.31 -3.685 Z M40.31 -21.718  44.551 -31.088  53.92 -35.329  44.551 -39.569  40.31 -48.939  36.069 -39.569  26.7 -35.329  36.069 -31.088  40.31 -21.718 Z"/></g><g id="Regular-S" transform="matrix(1 0 0 1 1405.73 696)"><path d="M73.377 -44.797  68.15 -56.138  56.808 -61.267  68.15 -66.494  73.377 -77.836  78.505 -66.494  89.847 -61.267  78.505 -56.138  73.377 -44.797 Z M73.377 7.277  68.249 -4.163  56.808 -9.292  68.249 -14.42  73.377 -25.861  78.505 -14.42  89.946 -9.292  78.505 -4.163  73.377 7.277 Z M40.239 -4.558  30.672 -25.762  9.468 -35.329  30.672 -44.895  40.239 -66.1  49.806 -44.895  71.01 -35.329  49.806 -25.762  40.239 -4.558 Z M40.239 -21.718  44.48 -31.088  53.849 -35.329  44.48 -39.569  40.239 -48.939  35.998 -39.569  26.629 -35.329  35.998 -31.088  40.239 -21.718 Z"/></g><g id="Light-S" transform="matrix(1 0 0 1 1109.75 696)"><path d="M71.404 -46.39  66.936 -56.138  57.188 -60.509  66.936 -64.976  71.404 -74.725  75.775 -64.976  85.523 -60.509  75.775 -56.138  71.404 -46.39 Z M71.404 4.167  67.034 -5.681  57.188 -10.05  67.034 -14.42  71.404 -24.267  75.775 -14.42  85.621 -10.05  75.775 -5.681  71.404 4.167 Z M38.949 -9.338  30.9 -27.28  12.958 -35.329  30.9 -43.377  38.949 -61.319  46.999 -43.377  64.941 -35.329  46.999 -27.28  38.949 -9.338 Z M38.949 -21.718  43.19 -31.088  52.559 -35.329  43.19 -39.569  38.949 -48.939  34.708 -39.569  25.339 -35.329  34.708 -31.088  38.949 -21.718 Z"/></g><g id="Thin-S" transform="matrix(1 0 0 1 814.015 696)"><path d="M69.432 -47.983  65.722 -56.138  57.566 -59.75  65.722 -63.459  69.432 -71.615  73.044 -63.459  81.199 -59.75  73.044 -56.138  69.432 -47.983 Z M69.432 1.056  65.82 -7.198  57.566 -10.808  65.82 -14.42  69.432 -22.674  73.044 -14.42  81.298 -10.808  73.044 -7.198  69.432 1.056 Z M37.66 -14.116  31.128 -28.797  16.448 -35.329  31.128 -41.861  37.66 -56.541  44.192 -41.861  58.871 -35.329  44.192 -28.797  37.66 -14.116 Z M37.66 -21.718  41.901 -31.088  51.27 -35.329  41.901 -39.569  37.66 -48.939  33.419 -39.569  24.05 -35.329  33.419 -31.088  37.66 -21.718 Z"/></g><g id="Ultralight-S" transform="matrix(1 0 0 1 517.792 696)"><path d="M68.249 -48.939  64.994 -56.138  57.794 -59.294  64.994 -62.549  68.249 -69.749  71.404 -62.549  78.604 -59.294  71.404 -56.138  68.249 -48.939 Z M68.249 -0.81  65.093 -8.108  57.794 -11.264  65.093 -14.42  68.249 -21.718  71.404 -14.42  78.703 -11.264  71.404 -8.108  68.249 -0.81 Z M36.886 -16.984  31.264 -29.707  18.541 -35.329  31.264 -40.95  36.886 -53.673  42.507 -40.95  55.23 -35.329  42.507 -29.707  36.886 -16.984 Z M36.886 -21.718  41.127 -31.088  50.496 -35.329  41.127 -39.569  36.886 -48.939  32.645 -39.569  23.276 -35.329  32.645 -31.088  36.886 -21.718 Z"/></g></g></svg>